<svg xmlns="http://www.w3.org/2000/svg" width="24" height="24" class="icon_svg"><path d="M22 17h-.21a10 10 0 0 0-4.59-6.53A5 5 0 0 0 20 6V2a1 1 0 1 0-2 0v4a3 3 0 0 1-3 3h-3a4.47 4.47 0 0 0 .65-3.42 1 1 0 0 0-.77-.77A4.44 4.44 0 0 0 7.75 6a1.63 1.63 0 0 0-.17.2A5.25 5.25 0 0 0 7 5.47a5 5 0 0 0-4.66-1.35 1 1 0 0 0-.77.76A5 5 0 0 0 6.07 11a10 10 0 0 0-3.86 6H2a1 1 0 0 0 0 2h.38l1.17 2.34A3 3 0 0 0 6.24 23h11.52a3 3 0 0 0 2.69-1.66L21.62 19H22a1 1 0 1 0 0-2ZM10.71 6.72A2.38 2.38 0 0 1 10 8.27 2.43 2.43 0 0 1 8.45 9a2.43 2.43 0 0 1 .71-1.55 2.38 2.38 0 0 1 1.55-.73ZM3.46 6a3 3 0 0 1 2.99 3 3 3 0 0 1-3-3h.01ZM12 11a8 8 0 0 1 7.74 6h-2.57a5.34 5.34 0 0 0-10.34 0H4.26A8 8 0 0 1 12 11Zm3.07 6H8.94a3.35 3.35 0 0 1 6.13 0Zm3.59 3.45a1 1 0 0 1-.9.55H6.24a1 1 0 0 1-.9-.55L4.62 19h14.76l-.72 1.45Z"/></svg>