<svg xmlns="http://www.w3.org/2000/svg" width="24" height="24" class="icon_svg"><path d="M21.265 4.615 11.076 1.817A7.305 7.305 0 0 0 4.81 14.662c.249.188.51.359.781.513l1.432 6.446a1 1 0 0 0 .977.783h6a1 1 0 0 0 .977-1.216l-.479-2.152a1.492 1.492 0 0 0-.643-2.893l-.192-.863 7.602-2.088A.999.999 0 0 0 22 12.23V5.58a1 1 0 0 0-.735-.964Zm-8.512 15.79H8.802l-.968-4.36c.477.105.964.16 1.452.165.611 0 1.22-.076 1.813-.226l.633-.173 1.02 4.593ZM20 11.464l-9.408 2.586a5.309 5.309 0 1 1-.023-10.3L20 6.341v5.125Z"/><path d="M9 12.404a3.5 3.5 0 1 1 0-7 3.5 3.5 0 0 1 0 7Zm0-5a1.5 1.5 0 1 0 0 3 1.5 1.5 0 0 0 0-3Z"/></svg>