<svg xmlns="http://www.w3.org/2000/svg" width="24" height="24" class="icon_svg"><path d="M21.42 21.093a22.243 22.243 0 0 0-4.032-1.434v-1.532a6.221 6.221 0 1 0-4.826-11.043 27.837 27.837 0 0 0-4.145-5.929 1.03 1.03 0 0 0-1.453 0c-.228.24-5.576 5.958-5.576 11.085a6.307 6.307 0 0 0 5.302 6.216v1.184a22.233 22.233 0 0 0-4.11 1.453 1 1 0 0 0 .852 1.81 20.06 20.06 0 0 1 17.136 0 1 1 0 0 0 .852-1.81ZM16.388 7.766a4.225 4.225 0 1 1-3.013 7.179 6.254 6.254 0 0 0 .618-2.705 9.902 9.902 0 0 0-.598-3.193 4.177 4.177 0 0 1 2.993-1.281Zm-13 4.474c0-3.31 2.909-7.202 4.302-8.877 1.394 1.675 4.303 5.568 4.303 8.877a4.303 4.303 0 0 1-3.303 4.174V12.25a1 1 0 1 0-2 0v4.164a4.303 4.303 0 0 1-3.302-4.174Zm5.302 6.998v-.782a6.286 6.286 0 0 0 3.536-1.85 6.254 6.254 0 0 0 3.162 1.517v1.126a22.01 22.01 0 0 0-6.698-.01Z"/></svg>