<svg xmlns="http://www.w3.org/2000/svg" width="24" height="24" class="icon_svg"><path d="M17.87 15.64a1 1 0 0 1 1.58 0c.55.7 2.33 3.09 2.33 4.5a3.12 3.12 0 1 1-6.24 0c0-1.41 1.79-3.8 2.33-4.5Zm.79 5.61c.6 0 1.093-.471 1.12-1.07A7 7 0 0 0 18.66 18a7 7 0 0 0-1.12 2.14 1.12 1.12 0 0 0 1.12 1.11ZM17 5a6 6 0 0 1 6 6v3a1 1 0 0 1-1 1h-7a1 1 0 0 1-1-1v-1h-1.28A2 2 0 0 1 11 14H7a2 2 0 0 1-1.72-1H2a1 1 0 0 1-1-1V6a1 1 0 0 1 1-1h3.28A2 2 0 0 1 7 4h1V3H6a1 1 0 0 1 0-2h6a1 1 0 1 1 0 2h-2v1h1a2 2 0 0 1 1.72 1H17ZM3 7v4h2V7H3Zm4 5h4V6H7v6Zm14 1v-2a4 4 0 0 0-4-4h-4v4h2a1 1 0 0 1 1 1v1h5Z"/></svg>