<svg xmlns="http://www.w3.org/2000/svg" width="24" height="24" class="icon_svg"><path d="M12 9a3.12 3.12 0 0 1-3.12-3.12c0-1.4 1.79-3.79 2.33-4.5a1 1 0 0 1 1.58 0c.54.71 2.33 3.1 2.33 4.5A3.12 3.12 0 0 1 12 9Zm0-5.29a7.11 7.11 0 0 0-1.12 2.17 1.12 1.12 0 0 0 2.24 0A7.11 7.11 0 0 0 12 3.71ZM22 16a1 1 0 0 1 1 1v1a5 5 0 0 1-5 5H6a5 5 0 0 1-5-5v-1a1 1 0 0 1 1-1h2v-3a3 3 0 0 1 3-3h10a3 3 0 0 1 3 3v3h2ZM6 13v3h2a5 5 0 0 1 4 2 5 5 0 0 1 4-2h2v-3a1 1 0 0 0-1-1H7a1 1 0 0 0-1 1Zm-3 5a3 3 0 0 0 3 3h5a3 3 0 0 0-3-3H3Zm15 3a3 3 0 0 0 3-3h-5a3 3 0 0 0-3 3h5Z"/></svg>