<svg xmlns="http://www.w3.org/2000/svg" width="24" height="24" viewBox="0 0 22 22" class="icon_svg"><path d="M21 13h-9v-.25a1 1 0 0 0-.29-.71L7 7.35V7a1 1 0 0 0 .61-.26l1-.93 2.65 2.65a1 1 0 0 0 1.41 0 1 1 0 0 0 0-1.41l-2-2H12a1 1 0 0 0 1-1V1a1 1 0 0 0-1-1H5a5 5 0 0 0-5 5v1a1 1 0 0 0 1 1v13a2 2 0 0 0 2 2h16a3 3 0 0 0 3-3v-5a1 1 0 0 0-1-1Zm-1 2v1h-9v-1h9ZM2 5a3 3 0 0 1 3-3h6v1H9.09a1 1 0 0 0-.68.27L6.54 5H2Zm1 15V7h2v.77a1 1 0 0 0 .29.71L9.87 13A1 1 0 0 0 9 14v5a3 3 0 0 0 .18 1H3Zm16 0h-7a1 1 0 0 1-1-1v-1h9v1a1 1 0 0 1-1 1Z"/></svg>