<svg xmlns="http://www.w3.org/2000/svg" width="24" height="24" class="icon_svg"><path d="M22 7h-5.177l-1.16-4.33a1 1 0 1 0-1.931.518L14.752 7H9.228l1.021-3.812a1.002 1.002 0 0 0-1.096-1.254 1 1 0 0 0-.836.737L7.157 7H2a1 1 0 0 0-1 1v4a1 1 0 0 0 1 1h.88l1.318 6.588A3.006 3.006 0 0 0 7.14 22h9.72a3.006 3.006 0 0 0 2.942-2.411L21.12 13H22a1 1 0 0 0 1-1V8a.998.998 0 0 0-1-1Zm-4.16 12.197a1.001 1.001 0 0 1-.98.803H7.14a1.001 1.001 0 0 1-.98-.804L4.92 13h14.16l-1.24 6.197ZM21 11H3V9h3.621l-.056.209a1 1 0 1 0 1.932.518L8.692 9h6.596l.215.8a1 1 0 0 0 1.932-.517L17.359 9H21v2Z"/></svg>