<svg xmlns="http://www.w3.org/2000/svg" width="24" height="24" viewBox="0 0 22 22" class="icon_svg"><path d="M19 0a3 3 0 0 1 3 3v6a3 3 0 0 1-2 2.82V20a1 1 0 0 1-.55.89l-2 1a1 1 0 0 1-.9 0l-2-1A1 1 0 0 1 14 20v-8.22A3 3 0 0 1 12 9l-.07-3.73-1.65 1.65A3 3 0 0 1 11 8.84V18a3 3 0 0 1-3 3H3a3 3 0 0 1-3-3V8.84a3 3 0 0 1 .89-2.15l3.2-3.1a2 2 0 0 1 2.78 0l2 1.91L12 2.41a3 3 0 0 1 .77-1.52A3 3 0 0 1 14.9 0H19ZM9 18V8.84a1 1 0 0 0-.3-.71L5.5 5 2.3 8.12a1 1 0 0 0-.3.72V18a1 1 0 0 0 1 1h5a1 1 0 0 0 1-1Zm9 1.38V12h-2v7.38l1 .5 1-.5ZM20 9V3a1 1 0 0 0-1-1h-4.1a1 1 0 0 0-1 1l.1 6a1 1 0 0 0 1 1h4a1 1 0 0 0 1-1ZM5.5 10.37a1.25 1.25 0 1 1 0-2.5 1.25 1.25 0 0 1 0 2.5ZM17.5 5h-1a1 1 0 0 1 0-2h1a1 1 0 1 1 0 2Z"/></svg>