<svg xmlns="http://www.w3.org/2000/svg" width="24" height="24" class="icon_svg"><path d="M11 1a1 1 0 0 1 1 1v2h.65a1 1 0 0 1 .74.33l6.35 7A1 1 0 0 1 20 12v8a3 3 0 0 1-3 3H7a3 3 0 0 1-3-3V5a1 1 0 0 1 1-1V2a1 1 0 0 1 1-1Zm1.2 5H6v14a1 1 0 0 0 1 1h10a1 1 0 0 0 1-1v-7.61L12.2 6Zm-.55 3.678a1 1 0 0 1 .83.442c.62.92 2.67 4.07 2.67 5.55a3.43 3.43 0 0 1-3.5 3.33 3.43 3.43 0 0 1-3.5-3.33c0-1.48 2-4.63 2.67-5.55a1 1 0 0 1 .83-.442Zm0 2.852a11.15 11.15 0 0 0-1.5 3.14 1.42 1.42 0 0 0 1.5 1.33 1.43 1.43 0 0 0 1.484-1.195l.016-.135a11.32 11.32 0 0 0-1.5-3.14ZM10 3H7v1h3V3Z"/></svg>