<svg xmlns="http://www.w3.org/2000/svg" width="24" height="24" class="icon_svg"><path d="M15.29 7a1.25 1.25 0 1 1 0-2.5 1.25 1.25 0 0 1 0 2.5Zm5.37 10.5A5.51 5.51 0 0 1 23 22a1 1 0 0 1-1 1h-5.5a5.5 5.5 0 0 1-4.24-2H11C5.477 21 1 16.523 1 11a9.92 9.92 0 0 1 .9-4.2l.1-.14A10 10 0 0 1 11 1h8a1 1 0 0 1 1 1v3a5 5 0 0 1-5 5h-4a2 2 0 0 0 0 4h1.26a5.5 5.5 0 0 1 4.24-2H22a1 1 0 0 1 1 1 5.51 5.51 0 0 1-2.34 4.5ZM11 3a8 8 0 0 0-6.45 3.29l3.73 2.79A4 4 0 0 1 11 8h4a3 3 0 0 0 3-3V3h-7ZM3.57 8.05A8.07 8.07 0 0 0 3 11a8 8 0 0 0 1.32 4.39l2.89-2.17A4.11 4.11 0 0 1 7 12a4.11 4.11 0 0 1 .21-1.22L3.57 8.05ZM11 19h.21a5.46 5.46 0 0 1 0-3H11a4 4 0 0 1-2.72-1.09l-2.66 2A8 8 0 0 0 11 19Zm5.5 2h4.35a3.51 3.51 0 0 0-3.35-2.5H17a1 1 0 1 1 0-2h.5a3.51 3.51 0 0 0 3.35-2.5H16.5a3.5 3.5 0 0 0 0 7Z"/></svg>