<svg xmlns="http://www.w3.org/2000/svg" width="24" height="24" class="icon_svg"><path d="M21.81 16.07A4.11 4.11 0 0 1 23 19.06 4.06 4.06 0 0 1 21.67 22 4 4 0 0 1 19 23a4.29 4.29 0 0 1-3.07-1.34l-6.54-6.53a7.47 7.47 0 0 1-1.26.11 7.09 7.09 0 0 1-5.05-2.09 7.17 7.17 0 0 1-1.42-8 1 1 0 0 1 1.62-.29l3.6 3.6 1.59-1.59-3.61-3.59a1 1 0 0 1 .29-1.62 7.13 7.13 0 0 1 10 7.75l6.66 6.66ZM4.5 11.78h-.01a5.13 5.13 0 1 0 3-8.72l3.09 3.11a1 1 0 0 1 0 1.41l-3 3a1 1 0 0 1-1.41 0L3.05 7.46a5.14 5.14 0 0 0 1.45 4.32Zm15.81 8.71.03.02a2.07 2.07 0 0 0 .08-3l-6-6a6.93 6.93 0 0 1-1.25 1.68 6.69 6.69 0 0 1-1.67 1.25l5.81 5.85a2.2 2.2 0 0 0 3 .2Z"/></svg>