<svg xmlns="http://www.w3.org/2000/svg" width="24" height="24" class="icon_svg"><path d="M19 4.9c-.2-.3-.5-.4-.8-.4H13V1.1h-2v3.3H5.8c-.3.1-.6.2-.8.5-.2.3-.3.6-.1.9l3.3 8.3c.2.4.5.6.9.6h2c.2 1 .7 1.9 1.5 2.6l.6.6c.7.7.7 1.8 0 2.5s-1.8.7-2.5 0L9.3 19c-.4-.4-1-.4-1.4 0-.4.4-.4 1 0 1.4l1.4 1.4c.8.8 1.7 1.2 2.7 1.2 1 0 1.9-.4 2.7-1.1 1.5-1.5 1.5-3.9 0-5.3L14 16c-.3-.3-.6-.8-.8-1.2h1.6c.4 0 .8-.2.9-.6L19 5.9c.3-.4.2-.7 0-1ZM8.1 8.5l-.8-2h2.8l-2 2Zm.8 2 4-4h2.4l-5.8 5.8-.6-1.8Zm5.3 2.2h-2.3l3.8-3.8-1.5 3.8Z"/></svg>