<svg xmlns="http://www.w3.org/2000/svg" width="24" height="24" class="icon_svg"><path d="M20.41 14.334A3.442 3.442 0 0 0 17.66 13H7.401l.546-1.912A1.506 1.506 0 0 1 9.39 10h2.67a1 1 0 1 0 0-2H9.39a3.516 3.516 0 0 0-3.367 2.54l-.003.01H4.365a.998.998 0 0 0-1 1V12a1 1 0 0 0 .254.666l.941 1.053a3.412 3.412 0 0 0-.628.615 3.24 3.24 0 0 0-.582 2.818l.81 3.1c.002.01.008.018.01.027V22a1 1 0 0 0 1 1h2.5a.998.998 0 0 0 1-1v-1h7v1a.998.998 0 0 0 1 1h2.5a.998.998 0 0 0 1-1v-1.722c.004-.01.01-.016.013-.026l.808-3.1a3.238 3.238 0 0 0-.582-2.818ZM5.513 15.557A1.457 1.457 0 0 1 6.68 15h10.98a1.458 1.458 0 0 1 1.166.557 1.249 1.249 0 0 1 .229 1.09L18.442 19H5.9l-.614-2.352a1.249 1.249 0 0 1 .229-1.091Z"/><path d="M16.42 17.646a1 1 0 1 0 0-2 1 1 0 0 0 0 2Zm-8.5 0a1 1 0 1 0 0-2 1 1 0 0 0 0 2Zm9.75-5.894a1 1 0 0 1-.97-.765 4.866 4.866 0 0 0-3.6-3.598 1 1 0 0 1 0-1.944 4.866 4.866 0 0 0 3.6-3.598 1 1 0 0 1 1.943 0 4.863 4.863 0 0 0 3.598 3.598 1 1 0 0 1 0 1.944 4.864 4.864 0 0 0-3.598 3.597 1 1 0 0 1-.972.766Zm-1.88-5.335a6.839 6.839 0 0 1 1.88 1.88 6.821 6.821 0 0 1 1.88-1.88 6.821 6.821 0 0 1-1.88-1.88 6.839 6.839 0 0 1-1.88 1.88ZM7.296 4.014a3.3 3.3 0 0 1-2.444-2.445.5.5 0 0 0-.973 0 3.303 3.303 0 0 1-2.444 2.445.5.5 0 0 0 0 .972 3.303 3.303 0 0 1 2.444 2.445.5.5 0 0 0 .973 0 3.3 3.3 0 0 1 2.444-2.445.5.5 0 0 0 0-.972Z"/></svg>