<svg xmlns="http://www.w3.org/2000/svg" width="24" height="24" class="icon_svg"><path d="m22.463 17.505-1.542-.744.79-3.543A1 1 0 0 0 20.733 12h-.023c.001-.023.013-.041.013-.065a3.182 3.182 0 0 0-3.179-3.178 3.11 3.11 0 0 0-1.093.197 4.2 4.2 0 0 0-3.015-1.267 4.261 4.261 0 0 0-3.703 2.175V2a1 1 0 0 0-2 0v8.354a5.107 5.107 0 0 0-3.43 2.307 6.647 6.647 0 0 0-1.048 3.215 9.78 9.78 0 0 1-2.043 5.472A1 1 0 0 0 1.972 23H18.73a1 1 0 0 0 .976-.782l.769-3.453 1.119.54a1 1 0 0 0 .869-1.8Zm-9.026-7.817a2.23 2.23 0 0 1 1.906 1.076 1.002 1.002 0 0 0 1.475.256 1.167 1.167 0 0 1 1.906.915c0 .024.011.042.013.065h-6.08a5.45 5.45 0 0 0-1.254-1.005 2.25 2.25 0 0 1 2.034-1.307ZM8.7 12.262A3.436 3.436 0 0 1 12.061 15H5.43c.112-.436.294-.851.538-1.23A3.1 3.1 0 0 1 8.7 12.264ZM10.983 21H3.857a12.367 12.367 0 0 0 1.282-4h7.063a9.976 9.976 0 0 1-.697 4h-.522Zm6.945 0h-4.29a14.74 14.74 0 0 0 .467-5.952 5.44 5.44 0 0 0-.24-1.048h5.621l-.415 1.867-2.594-1.253a.998.998 0 0 0-1.38 1.23.998.998 0 0 0 .51.571l3.017 1.457L17.928 21Z"/></svg>