<svg xmlns="http://www.w3.org/2000/svg" width="24" height="24" class="icon_svg"><path d="M18.5 23h-13a2 2 0 0 1-2-2v-7H2a1 1 0 0 1-1-1v-2a1 1 0 0 1 .33-.75l10.1-9a1 1 0 0 1 1.34 0l9.9 9A1 1 0 0 1 23 11v2a1 1 0 0 1-1 1h-1.5v7a2 2 0 0 1-2 2ZM3 12h1.5a1 1 0 0 1 1 1v8h13v-8a1 1 0 0 1 1-1H21v-.56l-8.91-8.09L3 11.45V12Zm14.35.73a1 1 0 0 1-.03 1.42l-1.5 1.44a1 1 0 0 1-.69.29 1 1 0 0 1-.7-.29l-1.5-1.44a1 1 0 0 1 1.06-1.66 2.5 2.5 0 0 0-4.2-.9 1 1 0 1 1-1.47-1.35 4.49 4.49 0 0 1 7.74 2.38 1 1 0 0 1 1.29.11Zm-3.23 4.01a1 1 0 0 1 1.46-.06 1 1 0 0 1 .06 1.42 4.49 4.49 0 0 1-7.75-2.39 1 1 0 0 1-1.28-.1 1 1 0 0 1 0-1.42l1.5-1.45a1 1 0 0 1 1.39 0l1.5 1.45a1 1 0 0 1-.72 1.72.89.89 0 0 1-.36-.07 2.49 2.49 0 0 0 4.2.9Z"/></svg>