<svg xmlns="http://www.w3.org/2000/svg" width="24" height="24" class="icon_svg"><path d="m21.85 14.81-.08.01a4.23 4.23 0 0 1-2.73 7.45h-.17a4.19 4.19 0 0 1-3-1.49l-5.49-6.49-1-1a.51.51 0 0 0-.71 0 .5.5 0 0 0 0 .71l.33.3a1 1 0 0 1 .3.71 1 1 0 0 1-.3.71l-1.39 1.41a2 2 0 0 1-2.83 0L1.25 13.6a2 2 0 0 1 0-2.83l1.41-1.42a1 1 0 0 1 1.41 0l.36.36a.5.5 0 0 0 .848-.355A.5.5 0 0 0 5.13 9l-.35-.35a1 1 0 0 1 0-1.42l3.87-3.87a5.55 5.55 0 0 1 7.82 0l1.78 1.78a1 1 0 0 1 .29.71 1.05 1.05 0 0 1-.29.71l-1.42 1.41a1 1 0 0 1-1.41 0l-.36-.35a.48.48 0 0 0-.7 0 .48.48 0 0 0 0 .7l1 1 6.49 5.49Zm-14.6-3v.02a2.5 2.5 0 0 1 3.55-.04l.35.35 2.13-2.12-.36-.35a2.52 2.52 0 0 1 0-3.54 2.57 2.57 0 0 1 3.15-.32l-1-1a3.51 3.51 0 0 0-5 0L6.87 8a2.5 2.5 0 0 1-3.47 3.44l-.74.74 3.53 3.56.75-.74a2.51 2.51 0 0 1 .31-3.19Zm13.44 7.78v.02a2.22 2.22 0 0 0-.14-3.27l-5.81-4.92-2.24 2.23 4.93 5.8a2.2 2.2 0 0 0 1.6.79 2.28 2.28 0 0 0 1.66-.65Z"/></svg>