<svg xmlns="http://www.w3.org/2000/svg" width="24" height="24" class="icon_svg"><path d="M17 .723A5.507 5.507 0 0 0 11.642 5H2.5a1 1 0 0 0-.768 1.64l5.962 7.157v-.001a2.98 2.98 0 0 0 1.306.89V18.2A2.805 2.805 0 0 1 6.2 21a1 1 0 0 0 0 2h7.6a1 1 0 0 0 0-2 2.805 2.805 0 0 1-2.8-2.8v-3.513a2.981 2.981 0 0 0 1.305-.89l2.222-2.666A5.498 5.498 0 1 0 17 .723Zm-6.232 11.794a1 1 0 0 1-1.537 0v-.001L7.969 11h4.063l-1.263 1.517ZM13.698 9H6.302L4.635 7h10.73l-1.667 2ZM17 9.723c-.388 0-.773-.066-1.14-.192l2.409-2.89A1 1 0 0 0 17.5 5h-3.768A3.494 3.494 0 1 1 17 9.723Z"/></svg>