<svg xmlns="http://www.w3.org/2000/svg" width="24" height="24" class="icon_svg"><path d="M12.664 13.363a1.888 1.888 0 0 0-1.886-1.882H4.831V5.696c0-1.117.908-2.025 2.025-2.025 1.118 0 2.026.908 2.026 2.025V9.11h2V5.696a4.03 4.03 0 0 0-4.026-4.025 4.03 4.03 0 0 0-4.025 4.025v5.796a1.882 1.882 0 0 0-1.784 1.874l.003 7.08c0 1.038.846 1.883 1.885 1.883h7.846a1.887 1.887 0 0 0 1.885-1.885l-.002-7.08ZM3.05 20.33l-.003-6.848h7.617l.002 6.848H3.05Z"/><path d="M19.977 13.929H14.93a1 1 0 0 0-1 1v.976H7.856v-1.044h-2v4.088h2v-1.044h6.075v.978a1 1 0 0 0 1 1h5.046a2.981 2.981 0 0 0 2.977-2.978 2.98 2.98 0 0 0-2.977-2.976Zm0 3.954H15.93v-1.954h4.046c.539 0 .977.438.977.976a.979.979 0 0 1-.977.978ZM13.5 9.362a1 1 0 0 1-.675-1.737l2.137-1.955a.998.998 0 1 1 1.35 1.475L14.174 9.1a.995.995 0 0 1-.675.262Zm1.188 2.698a1 1 0 0 1-.214-1.977l2.828-.625a1 1 0 0 1 .432 1.953l-2.829.625a1.025 1.025 0 0 1-.216.024Z"/></svg>