<svg xmlns="http://www.w3.org/2000/svg" width="24" height="24" class="icon_svg"><path d="M22 5.54h-1.537V2.462a1 1 0 1 0-2 0V5.54H15.39V2.462a1 1 0 1 0-2 0V5.54h-1.537a1 1 0 1 0 0 2h.015v2.016c0 2.514 1.85 4.589 4.256 4.977v2.443a3.566 3.566 0 0 1-3.562 3.561A3.566 3.566 0 0 1 9 16.976V13.22c0-2.52-2.05-4.572-4.571-4.572-1.156 0-2.26.434-3.109 1.22a1 1 0 1 0 1.36 1.467 2.567 2.567 0 0 1 1.749-.687A2.574 2.574 0 0 1 7 13.22v3.756a5.568 5.568 0 0 0 5.563 5.561 5.568 5.568 0 0 0 5.561-5.561v-2.52c2.21-.542 3.861-2.526 3.861-4.9V7.54H22a1 1 0 1 0 0-2Zm-2.015 4.016a3.062 3.062 0 0 1-3.058 3.058 3.062 3.062 0 0 1-3.059-3.058V7.54h6.117v2.016Z"/></svg>