<svg xmlns="http://www.w3.org/2000/svg" width="24" height="24" class="icon_svg"><path d="M22.26 16.07a1.06 1.06 0 0 0 .34-.26 3.81 3.81 0 0 0-.91-5.72 3.11 3.11 0 0 0-1.19-.46A3.72 3.72 0 0 0 20 7.8a3.72 3.72 0 0 0-2.56-1.88 3.56 3.56 0 0 0-2.31.4 3.59 3.59 0 0 0-5.67-.76 2.66 2.66 0 0 0-.59.89 3.59 3.59 0 0 0-2.73-.28A3.64 3.64 0 0 0 3.7 8.55a3.71 3.71 0 0 0-.19 1.07 3.83 3.83 0 0 0-2.65 2.06 3.94 3.94 0 0 0 .41 4c.126.164.291.295.48.38-.199.49-.36.995-.48 1.51a2 2 0 0 0 .38 1.68 2 2 0 0 0 1.57.75h17.56a2 2 0 0 0 1.95-2.46 10.08 10.08 0 0 0-.47-1.47Zm-19.6-3.54a1.9 1.9 0 0 1 1.38-1A2 2 0 0 0 5.5 9.72a2.2 2.2 0 0 1 .1-.56 1.66 1.66 0 0 1 1.09-1.07 1.53 1.53 0 0 1 1.21.12c.471.26 1.03.31 1.54.14a2.07 2.07 0 0 0 1.13-1 2.07 2.07 0 0 1 .31-.35 1.56 1.56 0 0 1 1.36-.44 1.68 1.68 0 0 1 1.17.83 2 2 0 0 0 1.22.94c.47.107.962.025 1.37-.23.319-.2.7-.27 1.07-.2a1.71 1.71 0 0 1 1.14.88c.16.263.245.563.25.87a2 2 0 0 0 1.59 1.92c.196.036.383.11.55.22.469.286.784.766.86 1.31a1.92 1.92 0 0 1-.19 1.06 11 11 0 0 0-18.6 0 1.89 1.89 0 0 1-.01-1.63ZM20.78 18H3.21a9 9 0 0 1 17.57 0Z"/></svg>