<svg xmlns="http://www.w3.org/2000/svg" width="24" height="24" viewBox="0 0 22 22" class="icon_svg"><path d="m21.73 18.54-5-8.66a1 1 0 0 0-1-1.73A2 2 0 0 0 13 7.42L8 10.3v-.94a4 4 0 0 0 3-3.86V1a1 1 0 0 0-1-1H4a1 1 0 0 0-1 1v4.5a4 4 0 0 0 3 3.86v2.1l-3.4 2a3 3 0 0 0-1.44 3.14l-.16.05A1 1 0 0 0 .64 18a1 1 0 0 0 .87.5.87.87 0 0 0 .49-.12l.16-.09a3 3 0 0 0 3.44.33L8 17.23v3.4a1 1 0 1 0 2 0v-4.55l1.67-1 2 3.46A5 5 0 0 0 18 21.08a5 5 0 0 0 2.5-.67l.86-.5a1 1 0 0 0 .37-1.37ZM5 2h4v1H5V2Zm0 3.5V5h4v.5a2 2 0 1 1-4 0Zm10.4 12.08-2-3.46a2 2 0 0 0-1.74-1 2 2 0 0 0-1 .26l-6.06 3.5a1 1 0 0 1-1.36-.36 1 1 0 0 1-.1-.76 1 1 0 0 1 .46-.61l10.4-6 .5.87 5 8.66a3 3 0 0 1-4.1-1.1Z"/></svg>