<svg xmlns="http://www.w3.org/2000/svg" width="24" height="24" class="icon_svg"><path d="M16.6 15.1c.3-.6.5-1.2.5-2v-1.6c.4.9 1 2 1.7 2.4.5.3 1 .4 1.5.4 1 0 2.1-.5 2.6-1.5.6-1.1.5-2.4-.3-3.4.9-.9 1.1-2.2.4-3.4-.4-.7-1-1.2-1.8-1.4-.8-.2-1.6-.1-2.3.3-.7.4-1.4 1.6-1.8 2.5-.4-2.4-2.4-4.2-4.9-4.2h-8C2.2 3.2.6 4.8.6 6.8c0 1.4.9 2.7 2.1 3.3v3c0 .7.2 1.4.5 2H.5v2h2.1v3.6h2v-3.6h14.7v3.6h2v-3.6h2.1v-2h-6.8Zm4.7-3.3c-.3.5-.9.6-1.4.4-.2-.1-.7-.9-1-1.7.4 0 .7.1 1.1.1.3 0 .7 0 1-.1.4.2.6.8.3 1.3Zm-1.4-5.1c.5-.3 1.1-.1 1.4.3.3.5.1 1.1-.4 1.4-.3.1-1.1.1-2.1 0 .4-.8.9-1.6 1.1-1.7Zm-7.7-1.4c1.7 0 3 1.3 3 3v.2h-1.9c-.4-1.3-.9-2.4-1.5-3.2h.4Zm-3.1 0c.8.7 1.5 1.8 2 3.2H8.4c-.5-1.3-1.1-2.4-1.8-3.2h2.5ZM2.6 6.9c0-.8.5-1.4 1.2-1.6.8.7 1.8 1.7 2.4 3.2h-2c-.9 0-1.6-.7-1.6-1.6Zm4 8.2c-1.1 0-2-.9-2-2v-2.7h10.5v2.7c0 1.1-.9 2-2 2H6.6Z"/></svg>