<svg xmlns="http://www.w3.org/2000/svg" width="24" height="24" class="icon_svg"><path d="m23.372 12.384-2.478-4.84a1 1 0 0 0-.89-.544h-1.74l.437-2.735A2 2 0 0 0 16.72 2H5.306a2 2 0 0 0-1.979 1.71L3.122 5H1.67a1 1 0 0 0 0 2h1.133l-.159 1H1.67a1 1 0 0 0 0 2h.656l-1.09 6.843A.999.999 0 0 0 2.224 18h1.435a3.458 3.458 0 1 0 6.787 0h2.419a3.457 3.457 0 1 0 6.79 0h1.803a1 1 0 0 0 .97-.76l1.025-4.16a.997.997 0 0 0-.08-.696ZM17.945 9h1.448l1.536 3h-3.463l.479-3ZM7.052 20.104a1.458 1.458 0 1 1 0-2.917 1.458 1.458 0 0 1 0 2.916ZM9.254 16a3.385 3.385 0 0 0-4.404 0H3.396l.955-6H8.67a1 1 0 0 0 0-2H4.669l.16-1h6.841a1 1 0 0 0 0-2H5.146l.16-1h11.417l-1.84 11.494c-.298.13-.576.3-.827.506H9.254Zm7.005 4.104a1.458 1.458 0 1 1 0-2.917 1.458 1.458 0 0 1 0 2.916ZM20.675 16H18.48a3.444 3.444 0 0 0-1.534-.745l.2-1.255h4.02l-.491 2Z"/></svg>