<svg xmlns="http://www.w3.org/2000/svg" width="24" height="24" class="icon_svg"><path d="M23.596 17a4.97 4.97 0 0 0-1.836-3.839L17.753 4.77a1.114 1.114 0 0 0-.464-.53.983.983 0 0 0-.432-.124c-.013 0-.023-.008-.036-.008h-4.843a1 1 0 0 0 0 2h1.656a3.534 3.534 0 0 0-.09 3.006l1.817 4.107A5.018 5.018 0 0 0 13.703 16H9.748a2.537 2.537 0 0 1-1.488-2.107c0-1.486 1.971-1.895 2.05-1.91a1 1 0 0 0 .815-.983V9a.998.998 0 0 0-1-1h-2.03V5a3.003 3.003 0 0 0-3-3H1.38a1 1 0 0 0-1 1v8a1 1 0 0 0 1 1h.28a6.56 6.56 0 0 0-1.115 5.203.99.99 0 0 0 .807.77c0 .01-.005.017-.005.027a4.056 4.056 0 1 0 8.11 0h5.06a4.055 4.055 0 1 0 8.109 0l-.001-.006a.996.996 0 0 0 .97-.994ZM9.125 10v.249a3.987 3.987 0 0 0-2.865 3.644A3.909 3.909 0 0 0 6.86 16H2.405a4.571 4.571 0 0 1 1.621-3.646 1 1 0 0 0-.079-1.587L2.832 10h6.293ZM2.38 4h2.715a1 1 0 0 1 1 1v3H2.832c-.153.007-.305.03-.452.072V4ZM5.4 20.056A2.058 2.058 0 0 1 3.347 18h4.11a2.058 2.058 0 0 1-2.056 2.056ZM21.425 16h-5.658a3.001 3.001 0 0 1 5.658 0Zm-5.93-9.182c.175-.273.431-.484.732-.603l2.783 5.827c-.14-.012-.272-.042-.414-.042-.502.007-1 .09-1.477.248l-1.744-3.943a1.54 1.54 0 0 1 .12-1.487Zm3.076 13.238A2.058 2.058 0 0 1 16.517 18h4.109a2.058 2.058 0 0 1-2.055 2.056Z"/></svg>