<svg xmlns="http://www.w3.org/2000/svg" width="24" height="24" class="icon_svg"><path d="M23 14.5a3.45 3.45 0 0 0-1.17-2.61 1.21 1.21 0 0 0 .05-.18 4.13 4.13 0 0 0 .11-.86 1 1 0 0 0 .51-.85V9a7 7 0 0 0-7-7h-7a7 7 0 0 0-7 7v1a1 1 0 0 0 .51.86c.008.29.045.578.11.86v.17A3.49 3.49 0 0 0 2 16.94V19a3 3 0 0 0 3 3h14a3 3 0 0 0 3-3v-2.06a3.46 3.46 0 0 0 1-2.44ZM20 11a2.37 2.37 0 0 1-1.88 2.11 2.49 2.49 0 0 1-2.55-.91 1 1 0 0 0-1.58 0 2.47 2.47 0 0 1-3.92 0 1 1 0 0 0-1.58 0 2.48 2.48 0 0 1-4.39-.93V11H20ZM8.5 4h7a5 5 0 0 1 5 5h-17a5 5 0 0 1 5-5Zm-3 11.06a4.49 4.49 0 0 0 3.79-.84 4.46 4.46 0 0 0 5.5 0 4.47 4.47 0 0 0 6-.47A1.49 1.49 0 0 1 19.5 16h-15A1.5 1.5 0 0 1 3 14.5a1.45 1.45 0 0 1 .21-.76 4.48 4.48 0 0 0 2.25 1.32h.04ZM19 20H5a1 1 0 0 1-1-1v-1a4 4 0 0 0 .5.05h15A4 4 0 0 0 20 18v1a1 1 0 0 1-1 1Z"/></svg>